<svg width="8" height="14" viewBox="0 0 8 14" fill="none" xmlns="http://www.w3.org/2000/svg">
<path d="M7.73089 0.271097C7.64517 0.185163 7.54334 0.116984 7.43124 0.0704646C7.31913 0.0239453 7.19895 0 7.07757 0C6.95619 0 6.83601 0.0239453 6.7239 0.0704646C6.6118 0.116984 6.50997 0.185163 6.42425 0.271097L0.215886 6.47946C0.147451 6.54776 0.093157 6.62888 0.0561124 6.71818C0.0190678 6.80749 0 6.90322 0 6.9999C0 7.09658 0.0190678 7.19232 0.0561124 7.28162C0.093157 7.37093 0.147451 7.45205 0.215886 7.52034L6.42425 13.7287C6.78598 14.0904 7.36916 14.0904 7.73089 13.7287C8.09261 13.367 8.09261 12.7838 7.73089 12.4221L2.31241 7.00359L7.73827 1.57773C8.09261 1.21601 8.09261 0.632821 7.73089 0.271097Z" fill="#414141"/>
</svg>
