<svg width="20" height="17" viewBox="0 0 20 17" fill="none" xmlns="http://www.w3.org/2000/svg">
<path d="M10.1608 9.77789L11.3298 7.75718C11.4049 7.63193 11.3715 7.47328 11.263 7.38143L10.0272 6.41283C10.0522 6.22913 10.0689 6.03707 10.0689 5.84502C10.0689 5.65297 10.0522 5.46092 10.0272 5.26887L11.263 4.30027C11.3715 4.20842 11.4049 4.04977 11.3298 3.92452L10.1608 1.90381C10.0856 1.77856 9.93532 1.72846 9.80172 1.77856L8.34881 2.36306C8.04821 2.12926 7.72256 1.93721 7.36351 1.78691L7.14641 0.242151C7.1324 0.174618 7.09584 0.113858 7.04273 0.0698527C6.98962 0.0258477 6.92312 0.00121465 6.85416 0H4.51615C4.3742 0 4.24895 0.10855 4.2239 0.250501L4.0068 1.79526C3.65609 1.94556 3.32209 2.13761 3.02149 2.37141L1.56859 1.78691C1.43499 1.73681 1.28469 1.78691 1.20953 1.91216L0.0405298 3.93287C-0.0346205 4.05812 -0.00122024 4.21677 0.10733 4.30862L1.34314 5.27722C1.31808 5.46092 1.30138 5.65297 1.30138 5.84502C1.30138 6.03707 1.31808 6.22913 1.34314 6.42118L0.10733 7.38978C-0.00122024 7.48163 -0.0346205 7.64028 0.0405298 7.76553L1.20953 9.78624C1.28469 9.91149 1.43499 9.96159 1.56859 9.91149L3.02149 9.32699C3.32209 9.56079 3.64774 9.75284 4.0068 9.90314L4.2239 11.4479C4.24895 11.5815 4.3742 11.69 4.51615 11.69H6.85416C6.99611 11.69 7.12136 11.5815 7.14641 11.4395L7.36351 9.89479C7.71421 9.74449 8.04821 9.55244 8.34881 9.31864L9.80172 9.90314C9.93532 9.95324 10.0856 9.90314 10.1608 9.77789ZM5.68515 7.51503C4.76665 7.51503 4.01515 6.76353 4.01515 5.84502C4.01515 4.92652 4.76665 4.17502 5.68515 4.17502C6.60366 4.17502 7.35516 4.92652 7.35516 5.84502C7.35516 6.76353 6.60366 7.51503 5.68515 7.51503ZM16.632 13.9195L15.8304 13.3016C15.8471 13.1847 15.8638 13.0595 15.8638 12.9342C15.8638 12.809 15.8555 12.6837 15.8304 12.5668L16.6237 11.9489C16.6905 11.8904 16.7155 11.7902 16.6654 11.7067L15.9139 10.4125C15.8722 10.329 15.772 10.3039 15.6801 10.329L14.7533 10.7047C14.5612 10.5544 14.3525 10.4292 14.1187 10.3373L13.9767 9.35204C13.9734 9.30741 13.9537 9.2656 13.9213 9.23474C13.8888 9.20387 13.8461 9.18616 13.8014 9.18504H12.3067C12.2149 9.18504 12.1314 9.25184 12.123 9.34369L11.9811 10.329C11.7556 10.4292 11.5385 10.5461 11.3465 10.6964L10.4196 10.3206C10.3771 10.3046 10.3302 10.3042 10.2874 10.3195C10.2446 10.3348 10.2086 10.3648 10.1858 10.4041L9.43432 11.6984C9.39257 11.7819 9.40092 11.8821 9.47607 11.9405L10.2693 12.5585C10.2349 12.8022 10.2349 13.0495 10.2693 13.2933L9.47607 13.9112C9.40927 13.9696 9.38422 14.0698 9.43432 14.1533L10.1858 15.4476C10.2276 15.5311 10.3278 15.5561 10.4196 15.5311L11.3465 15.1553C11.5385 15.3056 11.7473 15.4309 11.9811 15.5227L12.123 16.508C12.1397 16.5999 12.2149 16.6667 12.3067 16.6667H13.8014C13.8932 16.6667 13.9767 16.5999 13.9851 16.508L14.127 15.5227C14.3525 15.4225 14.5696 15.3056 14.7533 15.1553L15.6885 15.5311C15.772 15.5645 15.8722 15.5311 15.9223 15.4476L16.6738 14.1533C16.7239 14.0782 16.6988 13.978 16.632 13.9195ZM13.0499 14.0531C12.9018 14.0531 12.7552 14.0238 12.6184 13.9671C12.4816 13.9104 12.3573 13.8273 12.2526 13.7225C12.1479 13.6178 12.0649 13.4934 12.0083 13.3566C11.9517 13.2198 11.9226 13.0731 11.9226 12.925C11.9227 12.7769 11.9519 12.6303 12.0086 12.4935C12.0653 12.3567 12.1485 12.2324 12.2532 12.1278C12.358 12.0231 12.4823 11.9401 12.6191 11.8834C12.756 11.8268 12.9026 11.7977 13.0507 11.7978C13.3498 11.7979 13.6366 11.9168 13.848 12.1283C14.0594 12.3399 14.1781 12.6268 14.178 12.9259C14.1779 13.2249 14.0589 13.5117 13.8474 13.7231C13.6358 13.9345 13.349 14.0532 13.0499 14.0531Z" fill="#16DBCC"/>
<path fill-rule="evenodd" clip-rule="evenodd" d="M16.25 8.33333C16.7425 8.33333 17.2301 8.23633 17.6851 8.04788C18.14 7.85942 18.5534 7.5832 18.9016 7.23498C19.2499 6.88676 19.5261 6.47336 19.7145 6.01839C19.903 5.56342 20 5.07578 20 4.58333C20 4.09087 19.903 3.60324 19.7145 3.14827C19.5261 2.69329 19.2499 2.2799 18.9016 1.93168C18.5534 1.58346 18.14 1.30724 17.6851 1.11878C17.2301 0.930325 16.7425 0.833328 16.25 0.833328C15.2554 0.833328 14.3016 1.22842 13.5983 1.93168C12.8951 2.63494 12.5 3.58877 12.5 4.58333C12.5 5.57789 12.8951 6.53172 13.5983 7.23498C14.3016 7.93824 15.2554 8.33333 16.25 8.33333ZM16.1533 6.09999L18.2367 3.59999L17.5967 3.06666L15.805 5.21624L14.8779 4.28874L14.2888 4.87791L15.5387 6.12791L15.8613 6.45041L16.1533 6.09999Z" fill="#16DBCC"/>
</svg>
