<svg width="13" height="6" viewBox="0 0 13 6" fill="none" xmlns="http://www.w3.org/2000/svg">
<path d="M12.0032 0.995538C12.0037 1.12361 11.9754 1.25016 11.9205 1.36588C11.8656 1.48159 11.7855 1.58354 11.686 1.66423L6.54225 5.80497C6.38885 5.93107 6.19644 6 5.99787 6C5.7993 6 5.60688 5.93107 5.45348 5.80497L0.3097 1.51849C0.134626 1.37297 0.0245281 1.16387 0.00362743 0.937177C-0.0172732 0.710485 0.0527353 0.484775 0.198252 0.3097C0.343768 0.134626 0.552873 0.0245285 0.779565 0.00362774C1.00626 -0.017273 1.23197 0.0527353 1.40704 0.198252L6.00215 4.03037L10.5973 0.326846C10.7231 0.222013 10.8763 0.155421 11.0388 0.134949C11.2013 0.114477 11.3663 0.140982 11.5142 0.211328C11.6621 0.281674 11.7868 0.392918 11.8734 0.531894C11.9601 0.670871 12.0051 0.831765 12.0032 0.995538Z" fill="black" fill-opacity="0.7"/>
</svg>
