<svg width="14" height="14" viewBox="0 0 14 14" fill="none" xmlns="http://www.w3.org/2000/svg">
<path d="M9.31667 2.60522L10.728 4.01655M10.224 1.36188L6.40601 5.17989C6.20873 5.37688 6.07419 5.62787 6.01934 5.90122L5.66667 7.66655L7.432 7.31322C7.70534 7.25855 7.956 7.12455 8.15334 6.92722L11.9713 3.10922C12.0861 2.99449 12.1771 2.85828 12.2392 2.70838C12.3013 2.55847 12.3332 2.39781 12.3332 2.23555C12.3332 2.0733 12.3013 1.91263 12.2392 1.76273C12.1771 1.61282 12.0861 1.47662 11.9713 1.36188C11.8566 1.24715 11.7204 1.15614 11.5705 1.09405C11.4206 1.03196 11.2599 1 11.0977 1C10.9354 1 10.7748 1.03196 10.6248 1.09405C10.4749 1.15614 10.3387 1.24715 10.224 1.36188Z" stroke="#00A2D5" stroke-width="2" stroke-linecap="round" stroke-linejoin="round"/>
<path d="M11 8.99992V10.9999C11 11.3535 10.8595 11.6927 10.6095 11.9427C10.3594 12.1928 10.0203 12.3333 9.66667 12.3333H2.33333C1.97971 12.3333 1.64057 12.1928 1.39052 11.9427C1.14048 11.6927 1 11.3535 1 10.9999V3.66659C1 3.31296 1.14048 2.97382 1.39052 2.72378C1.64057 2.47373 1.97971 2.33325 2.33333 2.33325H4.33333" stroke="#00A2D5" stroke-width="2" stroke-linecap="round" stroke-linejoin="round"/>
</svg>
