<svg width="18" height="15" viewBox="0 0 18 15" fill="none" xmlns="http://www.w3.org/2000/svg">
<path d="M1 2.77778C1 2.30628 1.1873 1.8541 1.5207 1.5207C1.8541 1.1873 2.30628 1 2.77778 1H15.2222C15.6937 1 16.1459 1.1873 16.4793 1.5207C16.8127 1.8541 17 2.30628 17 2.77778V11.6667C17 12.1382 16.8127 12.5903 16.4793 12.9237C16.1459 13.2571 15.6937 13.4444 15.2222 13.4444H2.77778C2.30628 13.4444 1.8541 13.2571 1.5207 12.9237C1.1873 12.5903 1 12.1382 1 11.6667V2.77778Z" stroke="#595959" stroke-width="2" stroke-linecap="round" stroke-linejoin="round"/>
<path d="M1 2.77777L9 8.11111L17 2.77777" stroke="#595959" stroke-width="2" stroke-linecap="round" stroke-linejoin="round"/>
</svg>
