<svg width="18" height="11" viewBox="0 0 18 11" fill="none" xmlns="http://www.w3.org/2000/svg">
<path d="M1 6.4C4.24 -0.8 13.96 -0.8 17.2 6.4" stroke="black" stroke-width="1.35" stroke-linecap="round" stroke-linejoin="round"/>
<path d="M9.10039 10.0001C8.74582 10.0001 8.39472 9.93026 8.06715 9.79457C7.73957 9.65889 7.44192 9.46 7.1912 9.20929C6.94048 8.95857 6.7416 8.66092 6.60592 8.33334C6.47023 8.00576 6.40039 7.65467 6.40039 7.3001C6.40039 6.94553 6.47023 6.59443 6.60592 6.26685C6.7416 5.93927 6.94048 5.64163 7.1912 5.39091C7.44192 5.14019 7.73957 4.94131 8.06715 4.80562C8.39472 4.66993 8.74582 4.6001 9.10039 4.6001C9.81648 4.6001 10.5032 4.88456 11.0096 5.39091C11.5159 5.89726 11.8004 6.58401 11.8004 7.3001C11.8004 8.01618 11.5159 8.70294 11.0096 9.20929C10.5032 9.71563 9.81648 10.0001 9.10039 10.0001Z" stroke="black" stroke-width="1.35" stroke-linecap="round" stroke-linejoin="round"/>
</svg>
