<svg width="30" height="30" viewBox="0 0 30 30" fill="none" xmlns="http://www.w3.org/2000/svg">
<path d="M0 2.13214C0 0.953571 0.669 0 1.4925 0H13.5075C13.9033 1.68526e-08 14.283 0.224635 14.5629 0.62449C14.8428 1.02434 15 1.56666 15 2.13214C15 2.69762 14.8428 3.23994 14.5629 3.6398C14.283 4.03965 13.9033 4.26429 13.5075 4.26429H1.4925C1.09666 4.26429 0.717041 4.03965 0.437143 3.6398C0.157245 3.23994 0 2.69762 0 2.13214ZM0 15C0 13.8214 0.669 12.8679 1.4925 12.8679H28.5075C28.9033 12.8679 29.283 13.0925 29.5629 13.4923C29.8428 13.8922 30 14.4345 30 15C30 15.5655 29.8428 16.1078 29.5629 16.5077C29.283 16.9075 28.9033 17.1321 28.5075 17.1321H1.4925C1.09666 17.1321 0.717041 16.9075 0.437143 16.5077C0.157245 16.1078 0 15.5655 0 15ZM1.4925 25.7357C1.09666 25.7357 0.717041 25.9603 0.437143 26.3602C0.157245 26.7601 0 27.3024 0 27.8679C0 28.4333 0.157245 28.9757 0.437143 29.3755C0.717041 29.7754 1.09666 30 1.4925 30H19.5075C19.9033 30 20.283 29.7754 20.5629 29.3755C20.8428 28.9757 21 28.4333 21 27.8679C21 27.3024 20.8428 26.7601 20.5629 26.3602C20.283 25.9603 19.9033 25.7357 19.5075 25.7357H1.4925Z" fill="black"/>
</svg>
