<svg width="21" height="20" viewBox="0 0 21 20" fill="none" xmlns="http://www.w3.org/2000/svg">
<path d="M12.1929 11.7335L13.5957 9.30862C13.6859 9.15832 13.6458 8.96794 13.5156 8.85772L12.0326 7.69539C12.0627 7.47495 12.0827 7.24449 12.0827 7.01403C12.0827 6.78357 12.0627 6.55311 12.0326 6.32265L13.5156 5.16032C13.6458 5.0501 13.6859 4.85972 13.5957 4.70942L12.1929 2.28457C12.1027 2.13427 11.9224 2.07415 11.7621 2.13427L10.0186 2.83567C9.65786 2.55511 9.26707 2.32465 8.83621 2.14429L8.57569 0.290581C8.55888 0.209541 8.515 0.136629 8.45127 0.0838232C8.38754 0.0310172 8.30774 0.00145758 8.22499 0H5.41938C5.24904 0 5.09874 0.13026 5.06868 0.300601L4.80816 2.15431C4.38731 2.33467 3.98651 2.56513 3.62579 2.84569L1.8823 2.14429C1.72198 2.08417 1.54162 2.14429 1.45144 2.29459L0.0486358 4.71944C-0.0415446 4.86974 -0.00146428 5.06012 0.128796 5.17034L1.61176 6.33266C1.5817 6.55311 1.56166 6.78357 1.56166 7.01403C1.56166 7.24449 1.5817 7.47495 1.61176 7.70541L0.128796 8.86774C-0.00146428 8.97796 -0.0415446 9.16834 0.0486358 9.31864L1.45144 11.7435C1.54162 11.8938 1.72198 11.9539 1.8823 11.8938L3.62579 11.1924C3.98651 11.4729 4.37729 11.7034 4.80816 11.8838L5.06868 13.7375C5.09874 13.8978 5.24904 14.0281 5.41938 14.0281H8.22499C8.39533 14.0281 8.54563 13.8978 8.57569 13.7275L8.83621 11.8737C9.25705 11.6934 9.65786 11.4629 10.0186 11.1824L11.7621 11.8838C11.9224 11.9439 12.1027 11.8838 12.1929 11.7335ZM6.82218 9.01804C5.71998 9.01804 4.81817 8.11623 4.81817 7.01403C4.81817 5.91182 5.71998 5.01002 6.82218 5.01002C7.92439 5.01002 8.82619 5.91182 8.82619 7.01403C8.82619 8.11623 7.92439 9.01804 6.82218 9.01804ZM19.9585 16.7034L18.9965 15.9619C19.0166 15.8216 19.0366 15.6713 19.0366 15.521C19.0366 15.3707 19.0266 15.2204 18.9965 15.0802L19.9484 14.3387C20.0286 14.2685 20.0587 14.1483 19.9985 14.0481L19.0967 12.495C19.0466 12.3948 18.9264 12.3647 18.8162 12.3948L17.7039 12.8457C17.4735 12.6653 17.223 12.515 16.9424 12.4048L16.7721 11.2224C16.7681 11.1689 16.7444 11.1187 16.7055 11.0817C16.6666 11.0446 16.6153 11.0234 16.5617 11.022H14.7681C14.6579 11.022 14.5577 11.1022 14.5476 11.2124L14.3773 12.3948C14.1068 12.515 13.8462 12.6553 13.6158 12.8357L12.5035 12.3848C12.4525 12.3656 12.3963 12.3651 12.3449 12.3834C12.2935 12.4018 12.2503 12.4378 12.223 12.485L11.3212 14.0381C11.2711 14.1383 11.2811 14.2585 11.3713 14.3287L12.3232 15.0701C12.2819 15.3626 12.2819 15.6594 12.3232 15.9519L11.3713 16.6934C11.2911 16.7635 11.2611 16.8838 11.3212 16.984L12.223 18.5371C12.2731 18.6373 12.3933 18.6673 12.5035 18.6373L13.6158 18.1864C13.8462 18.3667 14.0967 18.517 14.3773 18.6273L14.5476 19.8096C14.5677 19.9198 14.6579 20 14.7681 20H16.5617C16.6719 20 16.7721 19.9198 16.7821 19.8096L16.9524 18.6273C17.223 18.507 17.4835 18.3667 17.7039 18.1864L18.8262 18.6373C18.9264 18.6774 19.0466 18.6373 19.1068 18.5371L20.0086 16.984C20.0687 16.8938 20.0386 16.7735 19.9585 16.7034ZM15.6599 16.8637C15.4822 16.8637 15.3062 16.8286 15.142 16.7605C14.9779 16.6925 14.8288 16.5927 14.7031 16.467C14.5775 16.3413 14.4779 16.1921 14.41 16.0279C14.342 15.8637 14.3071 15.6877 14.3072 15.51C14.3072 15.3323 14.3423 15.1564 14.4104 14.9922C14.4784 14.8281 14.5781 14.6789 14.7039 14.5533C14.8296 14.4277 14.9788 14.3281 15.143 14.2601C15.3072 14.1922 15.4832 14.1572 15.6609 14.1573C16.0198 14.1574 16.3639 14.3001 16.6176 14.554C16.8713 14.8079 17.0137 15.1521 17.0136 15.511C17.0134 15.8699 16.8707 16.2141 16.6169 16.4677C16.363 16.7214 16.0188 16.8639 15.6599 16.8637Z" fill="#396AFF"/>
</svg>
