<svg width="17" height="17" viewBox="0 0 17 17" fill="none" xmlns="http://www.w3.org/2000/svg">
<path d="M3.44046 8.90476C3.27943 8.90476 3.125 8.96873 3.01114 9.08259C2.89728 9.19645 2.83331 9.35088 2.83331 9.5119C2.83331 9.67293 2.89728 9.82736 3.01114 9.94122C3.125 10.0551 3.27943 10.119 3.44046 10.119H3.84522C4.00624 10.119 4.16067 10.0551 4.27453 9.94122C4.38839 9.82736 4.45236 9.67293 4.45236 9.5119C4.45236 9.35088 4.38839 9.19645 4.27453 9.08259C4.16067 8.96873 4.00624 8.90476 3.84522 8.90476H3.44046ZM2.83331 6.67857C2.83331 6.51755 2.89728 6.36312 3.01114 6.24926C3.125 6.13539 3.27943 6.07143 3.44046 6.07143H3.84522C4.00624 6.07143 4.16067 6.13539 4.27453 6.24926C4.38839 6.36312 4.45236 6.51755 4.45236 6.67857C4.45236 6.83959 4.38839 6.99402 4.27453 7.10789C4.16067 7.22175 4.00624 7.28571 3.84522 7.28571H3.44046C3.27943 7.28571 3.125 7.22175 3.01114 7.10789C2.89728 6.99402 2.83331 6.83959 2.83331 6.67857ZM3.44046 3.23809C3.27943 3.23809 3.125 3.30206 3.01114 3.41592C2.89728 3.52978 2.83331 3.68421 2.83331 3.84524C2.83331 4.00626 2.89728 4.16069 3.01114 4.27455C3.125 4.38841 3.27943 4.45238 3.44046 4.45238H3.84522C4.00624 4.45238 4.16067 4.38841 4.27453 4.27455C4.38839 4.16069 4.45236 4.00626 4.45236 3.84524C4.45236 3.68421 4.38839 3.52978 4.27453 3.41592C4.16067 3.30206 4.00624 3.23809 3.84522 3.23809H3.44046ZM5.66665 9.5119C5.66665 9.35088 5.73061 9.19645 5.84447 9.08259C5.95834 8.96873 6.11276 8.90476 6.27379 8.90476H6.67855C6.83958 8.90476 6.994 8.96873 7.10787 9.08259C7.22173 9.19645 7.28569 9.35088 7.28569 9.5119C7.28569 9.67293 7.22173 9.82736 7.10787 9.94122C6.994 10.0551 6.83958 10.119 6.67855 10.119H6.27379C6.11276 10.119 5.95834 10.0551 5.84447 9.94122C5.73061 9.82736 5.66665 9.67293 5.66665 9.5119ZM6.27379 6.07143C6.11276 6.07143 5.95834 6.13539 5.84447 6.24926C5.73061 6.36312 5.66665 6.51755 5.66665 6.67857C5.66665 6.83959 5.73061 6.99402 5.84447 7.10789C5.95834 7.22175 6.11276 7.28571 6.27379 7.28571H6.67855C6.83958 7.28571 6.994 7.22175 7.10787 7.10789C7.22173 6.99402 7.28569 6.83959 7.28569 6.67857C7.28569 6.51755 7.22173 6.36312 7.10787 6.24926C6.994 6.13539 6.83958 6.07143 6.67855 6.07143H6.27379ZM5.66665 3.84524C5.66665 3.68421 5.73061 3.52978 5.84447 3.41592C5.95834 3.30206 6.11276 3.23809 6.27379 3.23809H6.67855C6.83958 3.23809 6.994 3.30206 7.10787 3.41592C7.22173 3.52978 7.28569 3.68421 7.28569 3.84524C7.28569 4.00626 7.22173 4.16069 7.10787 4.27455C6.994 4.38841 6.83958 4.45238 6.67855 4.45238H6.27379C6.11276 4.45238 5.95834 4.38841 5.84447 4.27455C5.73061 4.16069 5.66665 4.00626 5.66665 3.84524ZM9.10712 8.90476C8.9461 8.90476 8.79167 8.96873 8.67781 9.08259C8.56395 9.19645 8.49998 9.35088 8.49998 9.5119C8.49998 9.67293 8.56395 9.82736 8.67781 9.94122C8.79167 10.0551 8.9461 10.119 9.10712 10.119H9.51188C9.67291 10.119 9.82734 10.0551 9.9412 9.94122C10.0551 9.82736 10.119 9.67293 10.119 9.5119C10.119 9.35088 10.0551 9.19645 9.9412 9.08259C9.82734 8.96873 9.67291 8.90476 9.51188 8.90476H9.10712ZM8.49998 6.67857C8.49998 6.51755 8.56395 6.36312 8.67781 6.24926C8.79167 6.13539 8.9461 6.07143 9.10712 6.07143H9.51188C9.67291 6.07143 9.82734 6.13539 9.9412 6.24926C10.0551 6.36312 10.119 6.51755 10.119 6.67857C10.119 6.83959 10.0551 6.99402 9.9412 7.10789C9.82734 7.22175 9.67291 7.28571 9.51188 7.28571H9.10712C8.9461 7.28571 8.79167 7.22175 8.67781 7.10789C8.56395 6.99402 8.49998 6.83959 8.49998 6.67857ZM9.10712 3.23809C8.9461 3.23809 8.79167 3.30206 8.67781 3.41592C8.56395 3.52978 8.49998 3.68421 8.49998 3.84524C8.49998 4.00626 8.56395 4.16069 8.67781 4.27455C8.79167 4.38841 8.9461 4.45238 9.10712 4.45238H9.51188C9.67291 4.45238 9.82734 4.38841 9.9412 4.27455C10.0551 4.16069 10.119 4.00626 10.119 3.84524C10.119 3.68421 10.0551 3.52978 9.9412 3.41592C9.82734 3.30206 9.67291 3.23809 9.51188 3.23809H9.10712Z" fill="#595959"/>
<path d="M0 15.381V1.61905C0 1.18965 0.170578 0.777838 0.474208 0.474208C0.777838 0.170578 1.18965 0 1.61905 0H11.3333C11.7627 0 12.1745 0.170578 12.4782 0.474208C12.7818 0.777838 12.9524 1.18965 12.9524 1.61905V15.381C12.9524 15.521 12.9346 15.6562 12.9014 15.7857H14.5714C14.6788 15.7857 14.7817 15.7431 14.8576 15.6672C14.9335 15.5913 14.9762 15.4883 14.9762 15.381V8.90476C14.9762 8.84192 14.9616 8.77995 14.9335 8.72375C14.9054 8.66754 14.8646 8.61866 14.8143 8.58095L14.4095 8.27738C14.2807 8.18077 14.1955 8.03694 14.1728 7.87753C14.15 7.71812 14.1915 7.5562 14.2881 7.42738C14.3847 7.29856 14.5285 7.2134 14.6879 7.19063C14.8474 7.16785 15.0093 7.20934 15.1381 7.30595L15.5429 7.60952C15.9509 7.91552 16.1905 8.39476 16.1905 8.90476V15.381C16.1905 15.8104 16.0199 16.2222 15.7163 16.5258C15.4126 16.8294 15.0008 17 14.5714 17H11.6879C11.6427 17 11.5977 16.9952 11.5535 16.9854C11.4815 16.9951 11.4078 17 11.3333 17H8.29762C8.13659 17 7.98217 16.936 7.8683 16.8222C7.75444 16.7083 7.69048 16.5539 7.69048 16.3929V14.5714H5.2619V16.3929C5.2619 16.5539 5.19794 16.7083 5.08408 16.8222C4.97021 16.936 4.81579 17 4.65476 17H1.61905C1.18965 17 0.777838 16.8294 0.474208 16.5258C0.170578 16.2222 0 15.8104 0 15.381ZM1.61905 15.7857H4.04762V13.9643C4.04762 13.8033 4.11159 13.6488 4.22545 13.535C4.33931 13.4211 4.49374 13.3571 4.65476 13.3571H8.29762C8.45864 13.3571 8.61307 13.4211 8.72693 13.535C8.84079 13.6488 8.90476 13.8033 8.90476 13.9643V15.7857H11.3333C11.4407 15.7857 11.5436 15.7431 11.6195 15.6672C11.6955 15.5913 11.7381 15.4883 11.7381 15.381V1.61905C11.7381 1.5117 11.6955 1.40875 11.6195 1.33284C11.5436 1.25693 11.4407 1.21429 11.3333 1.21429H1.61905C1.5117 1.21429 1.40875 1.25693 1.33284 1.33284C1.25693 1.40875 1.21429 1.5117 1.21429 1.61905V15.381C1.21429 15.4883 1.25693 15.5913 1.33284 15.6672C1.40875 15.7431 1.5117 15.7857 1.61905 15.7857Z" fill="#595959"/>
</svg>
