<svg width="12" height="17" viewBox="0 0 12 17" fill="none" xmlns="http://www.w3.org/2000/svg">
<path d="M2 4.53333C2 3.33102 2.42143 2.17795 3.17157 1.32778C3.92172 0.477618 4.93913 0 6 0C7.06087 0 8.07828 0.477618 8.82843 1.32778C9.57857 2.17795 10 3.33102 10 4.53333V6.8H10.25C11.216 6.8 12 7.68853 12 8.78333V15.0167C12 15.5427 11.8156 16.0471 11.4874 16.4191C11.1592 16.791 10.7141 17 10.25 17H1.75C1.28587 17 0.840752 16.791 0.512563 16.4191C0.184375 16.0471 0 15.5427 0 15.0167V8.78333C0 7.68853 0.784 6.8 1.75 6.8H2V4.53333ZM10.25 8.5H1.75C1.6837 8.5 1.62011 8.52985 1.57322 8.58299C1.52634 8.63612 1.5 8.70819 1.5 8.78333V15.0167C1.5 15.1731 1.612 15.3 1.75 15.3H10.25C10.3163 15.3 10.3799 15.2701 10.4268 15.217C10.4737 15.1639 10.5 15.0918 10.5 15.0167V8.78333C10.5 8.70819 10.4737 8.63612 10.4268 8.58299C10.3799 8.52985 10.3163 8.5 10.25 8.5ZM8.5 6.8V4.53333C8.5 3.78189 8.23661 3.06122 7.76777 2.52986C7.29893 1.99851 6.66304 1.7 6 1.7C5.33696 1.7 4.70107 1.99851 4.23223 2.52986C3.76339 3.06122 3.5 3.78189 3.5 4.53333V6.8H8.5Z" fill="#595959"/>
</svg>
