<svg width="21" height="22" viewBox="0 0 21 22" fill="none" xmlns="http://www.w3.org/2000/svg">
<path fill-rule="evenodd" clip-rule="evenodd" d="M20 15.5978V3.43297C20 2.7877 19.7419 2.16887 19.2826 1.7126C18.8233 1.25633 18.2003 1 17.5507 1H7.75327C7.10366 1 6.48066 1.25633 6.02132 1.7126C5.56198 2.16887 5.30392 2.7877 5.30392 3.43297V15.5978C5.30392 16.2431 5.56198 16.8619 6.02132 17.3182C6.48066 17.7744 7.10366 18.0308 7.75327 18.0308H17.5507C18.2003 18.0308 18.8233 17.7744 19.2826 17.3182C19.7419 16.8619 20 16.2431 20 15.5978Z" stroke="white" stroke-width="1.5" stroke-linecap="round" stroke-linejoin="round"/>
<path d="M5.06532 3.96216L2.61108 4.85019C2.00085 5.07097 1.50388 5.52345 1.22944 6.10812C0.954996 6.6928 0.925558 7.36181 1.1476 7.96804L5.33598 19.3993C5.44603 19.6996 5.61455 19.9754 5.83192 20.211C6.0493 20.4466 6.31126 20.6373 6.60285 20.7723C6.89445 20.9073 7.20995 20.9839 7.53136 20.9977C7.85276 21.0116 8.17377 20.9624 8.47604 20.853L15.295 18.1792M8.97815 7.08244H15.1015M8.97815 9.5154H16.3262M8.97815 11.9484H12.6522" stroke="white" stroke-width="1.5" stroke-linecap="round" stroke-linejoin="round"/>
</svg>
