<svg width="21" height="22" viewBox="0 0 21 22" fill="none" xmlns="http://www.w3.org/2000/svg">
<path fill-rule="evenodd" clip-rule="evenodd" d="M19.8729 15.5978V3.43297C19.8729 2.7877 19.6166 2.16887 19.1603 1.7126C18.7041 1.25633 18.0852 1 17.44 1H7.70811C7.06285 1 6.44402 1.25633 5.98775 1.7126C5.53148 2.16887 5.27515 2.7877 5.27515 3.43297V15.5978C5.27515 16.2431 5.53148 16.8619 5.98775 17.3182C6.44402 17.7744 7.06285 18.0308 7.70811 18.0308H17.44C18.0852 18.0308 18.7041 17.7744 19.1603 17.3182C19.6166 16.8619 19.8729 16.2431 19.8729 15.5978Z" stroke="#1A2C41" stroke-width="1.5" stroke-linecap="round" stroke-linejoin="round"/>
<path fill-rule="evenodd" clip-rule="evenodd" d="M19.8729 15.5978V3.43297C19.8729 2.7877 19.6166 2.16887 19.1603 1.7126C18.7041 1.25633 18.0852 1 17.44 1H7.70811C7.06285 1 6.44402 1.25633 5.98775 1.7126C5.53148 2.16887 5.27515 2.7877 5.27515 3.43297V15.5978C5.27515 16.2431 5.53148 16.8619 5.98775 17.3182C6.44402 17.7744 7.06285 18.0308 7.70811 18.0308H17.44C18.0852 18.0308 18.7041 17.7744 19.1603 17.3182C19.6166 16.8619 19.8729 16.2431 19.8729 15.5978Z" stroke="#1A2C41" stroke-width="1.5" stroke-linecap="round" stroke-linejoin="round"/>
<path d="M5.03814 3.96216L2.60031 4.85019C1.99416 5.07097 1.50051 5.52345 1.2279 6.10812C0.955297 6.6928 0.926056 7.36181 1.14661 7.96804L5.30698 19.3993C5.41629 19.6996 5.58369 19.9754 5.79961 20.211C6.01553 20.4466 6.27574 20.6373 6.56539 20.7723C6.85503 20.9073 7.16843 20.9839 7.48768 20.9977C7.80694 21.0116 8.1258 20.9624 8.42604 20.853L15.1994 18.1792M8.9248 7.08244H15.0072M8.9248 9.5154H16.2237M8.9248 11.9484H12.5742" stroke="#1A2C41" stroke-width="1.5" stroke-linecap="round" stroke-linejoin="round"/>
<path d="M5.03814 3.96216L2.60031 4.85019C1.99416 5.07097 1.50051 5.52345 1.2279 6.10812C0.955297 6.6928 0.926056 7.36181 1.14661 7.96804L5.30698 19.3993C5.41629 19.6996 5.58369 19.9754 5.79961 20.211C6.01553 20.4466 6.27574 20.6373 6.56539 20.7723C6.85503 20.9073 7.16843 20.9839 7.48768 20.9977C7.80694 21.0116 8.1258 20.9624 8.42604 20.853L15.1994 18.1792M8.9248 7.08244H15.0072M8.9248 9.5154H16.2237M8.9248 11.9484H12.5742" stroke="#1A2C41" stroke-width="1.5" stroke-linecap="round" stroke-linejoin="round"/>
</svg>
