<svg width="19" height="19" viewBox="0 0 19 19" fill="none" xmlns="http://www.w3.org/2000/svg">
<path d="M11.5012 11.0929L12.7482 8.93744C12.8283 8.80384 12.7927 8.63461 12.6769 8.53664L11.3587 7.50346C11.3855 7.30752 11.4033 7.10266 11.4033 6.89781C11.4033 6.69295 11.3855 6.4881 11.3587 6.28325L12.6769 5.25007C12.7927 5.15209 12.8283 4.98287 12.7482 4.84927L11.5012 2.69384C11.4211 2.56024 11.2608 2.5068 11.1183 2.56024L9.56849 3.18371C9.24785 2.93433 8.90049 2.72947 8.5175 2.56915L8.28592 0.921411C8.27098 0.849375 8.23198 0.784565 8.17533 0.737626C8.11868 0.690687 8.04775 0.664412 7.97419 0.663116H5.48031C5.3289 0.663116 5.1953 0.778904 5.16858 0.930317L4.937 2.57806C4.56292 2.73838 4.20665 2.94323 3.88601 3.19262L2.33624 2.56915C2.19374 2.51571 2.03342 2.56915 1.95326 2.70275L0.706318 4.85817C0.626157 4.99177 0.661784 5.161 0.777571 5.25897L2.09576 6.29215C2.06904 6.4881 2.05123 6.69295 2.05123 6.89781C2.05123 7.10266 2.06904 7.30752 2.09576 7.51237L0.777571 8.54555C0.661784 8.64352 0.626157 8.81275 0.706318 8.94635L1.95326 11.1018C2.03342 11.2354 2.19374 11.2888 2.33624 11.2354L3.88601 10.6119C4.20665 10.8613 4.55401 11.0661 4.937 11.2265L5.16858 12.8742C5.1953 13.0167 5.3289 13.1325 5.48031 13.1325H7.97419C8.1256 13.1325 8.2592 13.0167 8.28592 12.8653L8.5175 11.2176C8.89158 11.0572 9.24785 10.8524 9.56849 10.603L11.1183 11.2265C11.2608 11.2799 11.4211 11.2265 11.5012 11.0929ZM6.72725 8.67915C5.74751 8.67915 4.94591 7.87754 4.94591 6.89781C4.94591 5.91807 5.74751 5.11647 6.72725 5.11647C7.70699 5.11647 8.50859 5.91807 8.50859 6.89781C8.50859 7.87754 7.70699 8.67915 6.72725 8.67915ZM18.4039 15.5106L17.5489 14.8515C17.5667 14.7268 17.5845 14.5932 17.5845 14.4596C17.5845 14.326 17.5756 14.1924 17.5489 14.0677L18.395 13.4086C18.4663 13.3463 18.493 13.2394 18.4396 13.1503L17.638 11.7698C17.5934 11.6807 17.4865 11.654 17.3886 11.6807L16.3999 12.0815C16.1951 11.9212 15.9724 11.7876 15.723 11.6896L15.5716 10.6386C15.5681 10.591 15.547 10.5464 15.5124 10.5135C15.4779 10.4806 15.4323 10.4617 15.3846 10.4605H13.7903C13.6923 10.4605 13.6032 10.5317 13.5943 10.6297L13.4429 11.6807C13.2024 11.7876 12.9708 11.9123 12.766 12.0726L11.7774 11.6718C11.732 11.6547 11.682 11.6543 11.6363 11.6706C11.5907 11.6869 11.5523 11.7189 11.528 11.7609L10.7264 13.1414C10.6818 13.2305 10.6907 13.3374 10.7709 13.3997L11.617 14.0588C11.5803 14.3188 11.5803 14.5826 11.617 14.8426L10.7709 15.5017C10.6996 15.564 10.6729 15.6709 10.7264 15.76L11.528 17.1405C11.5725 17.2296 11.6794 17.2563 11.7774 17.2296L12.766 16.8288C12.9708 16.9891 13.1935 17.1227 13.4429 17.2207L13.5943 18.2717C13.6121 18.3696 13.6923 18.4409 13.7903 18.4409H15.3846C15.4825 18.4409 15.5716 18.3696 15.5805 18.2717L15.7319 17.2207C15.9724 17.1138 16.204 16.9891 16.3999 16.8288L17.3975 17.2296C17.4865 17.2652 17.5934 17.2296 17.6469 17.1405L18.4485 15.76C18.5019 15.6798 18.4752 15.5729 18.4039 15.5106ZM14.583 15.6531C14.425 15.653 14.2686 15.6219 14.1227 15.5614C13.9768 15.5009 13.8442 15.4122 13.7326 15.3005C13.6209 15.1887 13.5323 15.0561 13.4719 14.9101C13.4116 14.7642 13.3805 14.6078 13.3806 14.4498C13.3806 14.2918 13.4118 14.1354 13.4723 13.9895C13.5328 13.8436 13.6214 13.711 13.7332 13.5994C13.8449 13.4877 13.9775 13.3992 14.1235 13.3388C14.2695 13.2784 14.4259 13.2473 14.5839 13.2474C14.9029 13.2475 15.2088 13.3744 15.4343 13.6C15.6598 13.8257 15.7864 14.1317 15.7863 14.4507C15.7861 14.7697 15.6593 15.0756 15.4336 15.3011C15.208 15.5266 14.902 15.6532 14.583 15.6531Z" fill="white"/>
</svg>
