<svg width="17" height="16" viewBox="0 0 17 16" fill="none" xmlns="http://www.w3.org/2000/svg">
<path fill-rule="evenodd" clip-rule="evenodd" d="M6.49463 15.03H10.2054C12.8114 15.03 14.1148 15.03 15.0509 14.4163C15.4548 14.1516 15.8026 13.81 16.0746 13.411C16.7 12.4925 16.7 11.2124 16.7 8.65398C16.7 6.0947 16.7 4.81548 16.0746 3.89698C15.8026 3.49795 15.4548 3.15634 15.0509 2.89164C14.4497 2.49669 13.6965 2.35557 12.5434 2.30547C11.9931 2.30547 11.5197 1.89632 11.4119 1.3661C11.3296 0.977714 11.1157 0.629659 10.8064 0.380758C10.4971 0.131857 10.1114 -0.00262592 9.71439 3.88532e-05H6.98561C6.16063 3.88532e-05 5.45005 0.572014 5.28806 1.3661C5.18034 1.89632 4.7069 2.30547 4.15663 2.30547C3.00433 2.35557 2.25116 2.49752 1.64912 2.89164C1.2455 3.15639 0.897938 3.498 0.62625 3.89698C0 4.81548 0 6.0947 0 8.65398C0 11.2124 5.96046e-08 12.4916 0.625415 13.411C0.895955 13.8084 1.24331 14.1499 1.64912 14.4163C2.58516 15.03 3.8886 15.03 6.49463 15.03ZM8.35 5.23799C6.42867 5.23799 4.87056 6.76688 4.87056 8.65314C4.87056 10.5402 6.42867 12.0691 8.35 12.0691C10.2713 12.0691 11.8294 10.5402 11.8294 8.65398C11.8294 6.76688 10.2713 5.23799 8.35 5.23799ZM8.35 6.60405C7.1977 6.60405 6.2625 7.52172 6.2625 8.65398C6.2625 9.7854 7.1977 10.7031 8.35 10.7031C9.5023 10.7031 10.4375 9.7854 10.4375 8.65398C10.4375 7.52172 9.5023 6.60405 8.35 6.60405ZM12.2929 5.92102C12.2929 5.5436 12.6043 5.23799 12.9893 5.23799H13.9161C14.3002 5.23799 14.6125 5.5436 14.6125 5.92102C14.6107 6.1038 14.5365 6.27841 14.4061 6.40648C14.2757 6.53455 14.0997 6.60561 13.9169 6.60405H12.9893C12.8987 6.60494 12.8088 6.58797 12.7248 6.55412C12.6408 6.52027 12.5643 6.4702 12.4996 6.40677C12.4349 6.34335 12.3834 6.26781 12.3479 6.18446C12.3124 6.10112 12.2937 6.0116 12.2929 5.92102Z" fill="#F35C25"/>
</svg>
