<svg width="15" height="15" viewBox="0 0 15 15" fill="none" xmlns="http://www.w3.org/2000/svg">
<g clip-path="url(#clip0_787_9)">
<mask id="mask0_787_9" style="mask-type:luminance" maskUnits="userSpaceOnUse" x="0" y="0" width="15" height="15">
<path d="M15 0H0V15H15V0Z" fill="white"/>
</mask>
<g mask="url(#mask0_787_9)">
<path d="M11.6852 4.70931C11.6852 5.07938 11.5382 5.4343 11.2765 5.69597C11.0149 5.95765 10.6599 6.10466 10.2899 6.10466C9.91981 6.10466 9.5649 5.95765 9.30322 5.69597C9.04154 5.4343 8.89453 5.07938 8.89453 4.70931C8.89453 4.33924 9.04154 3.98433 9.30322 3.72265C9.5649 3.46097 9.91981 3.31396 10.2899 3.31396C10.6599 3.31396 11.0149 3.46097 11.2765 3.72265C11.5382 3.98433 11.6852 4.33924 11.6852 4.70931Z" fill="#F35C25"/>
<path fill-rule="evenodd" clip-rule="evenodd" d="M7.53977 0H7.46023C5.8493 0 4.58721 4.47035e-08 3.60209 0.132558C2.59465 0.267907 1.7993 0.551163 1.17488 1.17488C0.550465 1.7993 0.267907 2.59465 0.132558 3.60279C4.47035e-08 4.58721 0 5.8493 0 7.46023V7.53977C0 9.1507 4.47035e-08 10.4128 0.132558 11.3979C0.267907 12.4053 0.551163 13.2007 1.17488 13.8251C1.7993 14.4495 2.59465 14.7321 3.60279 14.8674C4.58721 15 5.8493 15 7.46023 15H7.53977C9.1507 15 10.4128 15 11.3979 14.8674C12.4053 14.7321 13.2007 14.4488 13.8251 13.8251C14.4495 13.2007 14.7321 12.4053 14.8674 11.3972C15 10.4128 15 9.1507 15 7.53977V7.46023C15 5.8493 15 4.58721 14.8674 3.60209C14.7321 2.59465 14.4488 1.7993 13.8251 1.17488C13.2007 0.550465 12.4053 0.267907 11.3972 0.132558C10.4128 4.47035e-08 9.1507 0 7.53977 0ZM1.91512 1.91512C2.31279 1.51744 2.85 1.2893 3.74233 1.1693C4.6493 1.04791 5.84093 1.04651 7.5 1.04651C9.15907 1.04651 10.3507 1.04791 11.2577 1.1693C12.15 1.2893 12.6879 1.51814 13.0856 1.91512C13.4826 2.31279 13.7107 2.85 13.8307 3.74233C13.9521 4.6493 13.9535 5.84093 13.9535 7.5L13.9528 8.39302L13.7979 8.37209C11.8137 8.09721 9.99767 9.12837 9.07326 10.6835C7.88023 7.66605 4.72884 5.60791 1.20767 6.11372L1.05 6.13605C1.05767 5.15581 1.08419 4.3786 1.1693 3.74233C1.2893 2.85 1.51814 2.31279 1.91512 1.91512Z" fill="#F35C25"/>
</g>
</g>
<defs>
<clipPath id="clip0_787_9">
<rect width="15" height="15" fill="white"/>
</clipPath>
</defs>
</svg>
