<svg width="31" height="31" viewBox="0 0 31 31" fill="none" xmlns="http://www.w3.org/2000/svg">
<path d="M21.3458 6.54096L24.4591 9.65423M23.3473 3.79828L14.9251 12.2204C14.49 12.655 14.1932 13.2086 14.0722 13.8116L13.2942 17.7058L17.1884 16.9264C17.7913 16.8058 18.3443 16.5102 18.7796 16.0749L27.2017 7.65273C27.4548 7.39965 27.6556 7.09919 27.7925 6.76852C27.9295 6.43784 28 6.08343 28 5.72551C28 5.36759 27.9295 5.01318 27.7925 4.6825C27.6556 4.35183 27.4548 4.05137 27.2017 3.79828C26.9486 3.5452 26.6482 3.34444 26.3175 3.20747C25.9868 3.0705 25.6324 3 25.2745 3C24.9166 3 24.5622 3.0705 24.2315 3.20747C23.9008 3.34444 23.6004 3.5452 23.3473 3.79828Z" stroke="#F35C25" stroke-width="4.41181" stroke-linecap="round" stroke-linejoin="round"/>
<path d="M25.0591 20.647V25.0588C25.0591 25.8388 24.7492 26.5869 24.1976 27.1385C23.646 27.6901 22.8979 28 22.1178 28H5.94121C5.16115 28 4.41304 27.6901 3.86146 27.1385C3.30988 26.5869 3 25.8388 3 25.0588V8.88212C3 8.10207 3.30988 7.35396 3.86146 6.80238C4.41304 6.25079 5.16115 5.94092 5.94121 5.94092H10.353" stroke="#F35C25" stroke-width="4.41181" stroke-linecap="round" stroke-linejoin="round"/>
</svg>
