<svg width="12" height="12" viewBox="0 0 12 12" fill="none" xmlns="http://www.w3.org/2000/svg">
<path d="M5.33334 3.33335V6.66668L8.16667 8.34668L8.68 7.49335L6.33334 6.10001V3.33335H5.33334ZM12 4.66668V1.24022e-05L10.24 1.76001C9.68477 1.20083 9.02413 0.757348 8.29632 0.455241C7.56852 0.153134 6.78802 -0.00159538 6 1.24022e-05C4.81331 1.24022e-05 3.65328 0.351906 2.66658 1.01119C1.67989 1.67048 0.910851 2.60756 0.456725 3.70391C0.00259968 4.80027 -0.11622 6.00667 0.115291 7.17055C0.346802 8.33444 0.918247 9.40354 1.75736 10.2427C2.59648 11.0818 3.66558 11.6532 4.82946 11.8847C5.99335 12.1162 7.19975 11.9974 8.2961 11.5433C9.39246 11.0892 10.3295 10.3201 10.9888 9.33343C11.6481 8.34674 12 7.1867 12 6.00001H10.6667C10.6667 8.57335 8.57334 10.6667 6 10.6667C3.42667 10.6667 1.33334 8.57335 1.33334 6.00001C1.33334 3.42668 3.42667 1.33335 6 1.33335C7.28667 1.33335 8.45334 1.86001 9.3 2.70001L7.33334 4.66668H12Z" fill="#055F7B"/>
</svg>
