<svg width="19" height="20" viewBox="0 0 19 20" fill="none" xmlns="http://www.w3.org/2000/svg">
<path fill-rule="evenodd" clip-rule="evenodd" d="M8.08744 0H10.0521C11.7619 0 13.1163 0 14.1758 0.142326C15.266 0.289302 16.1488 0.59814 16.8456 1.29395C17.5414 1.9907 17.8502 2.87349 17.9972 3.96372C18.1395 5.02419 18.1395 6.37767 18.1395 8.08744V11.9126C18.1395 13.6223 18.1395 14.9767 17.9972 16.0363C17.8502 17.1265 17.5414 18.0093 16.8456 18.706C16.1488 19.4019 15.266 19.7107 14.1758 19.8577C13.1153 20 11.7619 20 10.0521 20H8.08744C6.37767 20 5.02326 20 3.96372 19.8577C2.87349 19.7107 1.9907 19.4019 1.29395 18.706C0.598139 18.0093 0.289302 17.1265 0.142326 16.0363C1.04308e-07 14.9758 0 13.6223 0 11.9126V8.08744C0 6.37767 1.04308e-07 5.02326 0.142326 3.96372C0.289302 2.87349 0.598139 1.9907 1.29395 1.29395C1.9907 0.59814 2.87349 0.289302 3.96372 0.142326C5.02419 0 6.37767 0 8.08744 0ZM4.14884 1.52558C3.21302 1.65116 2.67349 1.88744 2.27907 2.28093C1.88651 2.67442 1.65023 3.21395 1.52465 4.14977C1.39628 5.10605 1.39442 6.36558 1.39442 8.13953V11.8605C1.39442 13.6344 1.39628 14.8949 1.52465 15.8512C1.65023 16.786 1.88651 17.3256 2.28 17.7191C2.67349 18.1126 3.21302 18.3488 4.14884 18.4744C5.10512 18.6028 6.36465 18.6047 8.1386 18.6047H9.99907C11.773 18.6047 13.0335 18.6028 13.9898 18.4744C14.9246 18.3488 15.4642 18.1126 15.8577 17.7191C16.2512 17.3256 16.4874 16.786 16.613 15.8502C16.7414 14.8949 16.7433 13.6344 16.7433 11.8605V8.13953C16.7433 6.36558 16.7414 5.10605 16.613 4.14884C16.4874 3.21395 16.2512 2.67442 15.8577 2.28093C15.4642 1.88744 14.9247 1.65116 13.9888 1.52558C13.0335 1.39721 11.773 1.39535 9.99907 1.39535H8.1386C6.36465 1.39535 5.10605 1.39721 4.14884 1.52558ZM4.65116 6.27907C4.65116 6.09404 4.72467 5.91658 4.85551 5.78574C4.98635 5.6549 5.1638 5.5814 5.34884 5.5814H12.7907C12.9757 5.5814 13.1532 5.6549 13.284 5.78574C13.4149 5.91658 13.4884 6.09404 13.4884 6.27907C13.4884 6.4641 13.4149 6.64156 13.284 6.7724C13.1532 6.90324 12.9757 6.97674 12.7907 6.97674H5.34884C5.1638 6.97674 4.98635 6.90324 4.85551 6.7724C4.72467 6.64156 4.65116 6.4641 4.65116 6.27907ZM4.65116 10C4.65116 9.81497 4.72467 9.63751 4.85551 9.50667C4.98635 9.37583 5.1638 9.30233 5.34884 9.30233H12.7907C12.9757 9.30233 13.1532 9.37583 13.284 9.50667C13.4149 9.63751 13.4884 9.81497 13.4884 10C13.4884 10.185 13.4149 10.3625 13.284 10.4933C13.1532 10.6242 12.9757 10.6977 12.7907 10.6977H5.34884C5.1638 10.6977 4.98635 10.6242 4.85551 10.4933C4.72467 10.3625 4.65116 10.185 4.65116 10ZM4.65116 13.7209C4.65116 13.5359 4.72467 13.3584 4.85551 13.2276C4.98635 13.0968 5.1638 13.0233 5.34884 13.0233H10C10.185 13.0233 10.3625 13.0968 10.4933 13.2276C10.6242 13.3584 10.6977 13.5359 10.6977 13.7209C10.6977 13.906 10.6242 14.0834 10.4933 14.2143C10.3625 14.3451 10.185 14.4186 10 14.4186H5.34884C5.1638 14.4186 4.98635 14.3451 4.85551 14.2143C4.72467 14.0834 4.65116 13.906 4.65116 13.7209Z" fill="white"/>
</svg>
