<svg width="18" height="18" viewBox="0 0 18 18" fill="none" xmlns="http://www.w3.org/2000/svg">
<path d="M17.7383 16.4603L16.4604 17.7383C16.2918 17.9059 16.0637 18 15.826 18C15.5882 18 15.3601 17.9059 15.1915 17.7383L4.50036 7.06472C4.20771 7.1495 3.90507 7.1949 3.60043 7.19971C3.02745 7.19931 2.46284 7.06212 1.95355 6.79956C1.44426 6.537 1.005 6.15665 0.672296 5.69014C0.33959 5.22363 0.123049 4.68443 0.040676 4.11738C-0.0416969 3.55033 0.0124784 2.9718 0.198698 2.4299L2.48452 4.71581L2.96148 4.23883L4.23938 2.96088L4.71634 2.4839L2.43052 0.197992C2.9724 0.0117655 3.5509 -0.042412 4.11793 0.0399642C4.68496 0.12234 5.22413 0.33889 5.69063 0.671609C6.15712 1.00433 6.53745 1.4436 6.8 1.95291C7.06255 2.46222 7.19973 3.02685 7.20014 3.59986C7.19533 3.90451 7.14993 4.20716 7.06515 4.49982L17.7383 15.1914C17.9059 15.36 18 15.5881 18 15.8259C18 16.0636 17.9059 16.2917 17.7383 16.4603ZM0.261693 15.1914C0.0940801 15.36 0 15.5881 0 15.8259C0 16.0636 0.0940801 16.2917 0.261693 16.4603L1.53959 17.7383C1.7082 17.9059 1.93629 18 2.17404 18C2.41179 18 2.63988 17.9059 2.80849 17.7383L7.7311 12.8245L5.1843 10.2776M16.1994 0L12.5997 1.79993V3.59986L10.6469 5.55278L12.4467 7.35271L14.3996 5.39979H16.1994L17.9993 1.79993L16.1994 0Z" fill="#008FBC"/>
</svg>
