<svg width="16" height="17" viewBox="0 0 16 17" fill="none" xmlns="http://www.w3.org/2000/svg">
<path d="M7.65 1.7C6.74826 1.7 5.88346 2.05821 5.24584 2.69584C4.60821 3.33346 4.25 4.19826 4.25 5.1C4.25 6.00174 4.60821 6.86654 5.24584 7.50416C5.88346 8.14179 6.74826 8.5 7.65 8.5C8.55174 8.5 9.41654 8.14179 10.0542 7.50416C10.6918 6.86654 11.05 6.00174 11.05 5.1C11.05 4.19826 10.6918 3.33346 10.0542 2.69584C9.41654 2.05821 8.55174 1.7 7.65 1.7ZM2.55 5.1C2.55 3.7474 3.08732 2.45019 4.04376 1.49376C5.00019 0.53732 6.2974 0 7.65 0C9.0026 0 10.2998 0.53732 11.2562 1.49376C12.2127 2.45019 12.75 3.7474 12.75 5.1C12.75 6.4526 12.2127 7.74981 11.2562 8.70624C10.2998 9.66268 9.0026 10.2 7.65 10.2C6.2974 10.2 5.00019 9.66268 4.04376 8.70624C3.08732 7.74981 2.55 6.4526 2.55 5.1ZM4.25 13.6C3.5737 13.6 2.9251 13.8687 2.44688 14.3469C1.96866 14.8251 1.7 15.4737 1.7 16.15C1.7 16.3754 1.61045 16.5916 1.45104 16.751C1.29163 16.9104 1.07543 17 0.85 17C0.624566 17 0.408365 16.9104 0.248959 16.751C0.0895533 16.5916 0 16.3754 0 16.15C0 15.0228 0.447767 13.9418 1.2448 13.1448C2.04183 12.3478 3.12283 11.9 4.25 11.9H11.05C12.1772 11.9 13.2582 12.3478 14.0552 13.1448C14.8522 13.9418 15.3 15.0228 15.3 16.15C15.3 16.3754 15.2104 16.5916 15.051 16.751C14.8916 16.9104 14.6754 17 14.45 17C14.2246 17 14.0084 16.9104 13.849 16.751C13.6896 16.5916 13.6 16.3754 13.6 16.15C13.6 15.4737 13.3313 14.8251 12.8531 14.3469C12.3749 13.8687 11.7263 13.6 11.05 13.6H4.25Z" fill="#595959"/>
</svg>
