<svg width="16" height="11" viewBox="0 0 16 11" fill="none" xmlns="http://www.w3.org/2000/svg">
<path d="M8.23889 1.1001C5.75117 1.1001 3.1993 2.53993 1.19036 5.4196C1.13303 5.5027 1.1016 5.60093 1.10006 5.70189C1.09853 5.80284 1.12696 5.90198 1.18175 5.98679C2.72531 8.40301 5.24304 10.2926 8.23889 10.2926C11.2022 10.2926 13.7716 8.39726 15.3181 5.97562C15.3715 5.89248 15.4 5.79569 15.4 5.69681C15.4 5.59793 15.3715 5.50115 15.3181 5.418C13.7681 3.02413 11.1799 1.1001 8.23889 1.1001Z" stroke="#F35C25" stroke-width="0.975" stroke-linecap="round" stroke-linejoin="round"/>
<path d="M8.24965 8.24999C9.65989 8.24999 10.8031 7.10677 10.8031 5.69653C10.8031 4.2863 9.65989 3.14307 8.24965 3.14307C6.83941 3.14307 5.69618 4.2863 5.69618 5.69653C5.69618 7.10677 6.83941 8.24999 8.24965 8.24999Z" stroke="#F35C25" stroke-width="0.975" stroke-miterlimit="10"/>
</svg>
