<svg width="40" height="37" viewBox="0 0 40 37" fill="none" xmlns="http://www.w3.org/2000/svg">
<g filter="url(#filter0_d_369_29)">
<path d="M6.66683 32C5.75016 32 4.96572 31.6739 4.3135 31.0217C3.66127 30.3695 3.33461 29.5845 3.3335 28.6667V10.3333C3.3335 9.41668 3.66016 8.63223 4.3135 7.98001C4.96683 7.32779 5.75127 7.00112 6.66683 7.00001H13.3335V3.66668C13.3335 2.75001 13.6602 1.96557 14.3135 1.31334C14.9668 0.661121 15.7513 0.334455 16.6668 0.333344H23.3335C24.2502 0.333344 25.0352 0.66001 25.6885 1.31334C26.3418 1.96668 26.6679 2.75112 26.6668 3.66668V7.00001H33.3335C34.2502 7.00001 35.0352 7.32668 35.6885 7.98001C36.3418 8.63334 36.6679 9.41779 36.6668 10.3333V28.6667C36.6668 29.5833 36.3407 30.3683 35.6885 31.0217C35.0363 31.675 34.2513 32.0011 33.3335 32H6.66683ZM6.66683 28.6667H33.3335V10.3333H6.66683V28.6667ZM16.6668 7.00001H23.3335V3.66668H16.6668V7.00001Z" fill="white"/>
</g>
<defs>
<filter id="filter0_d_369_29" x="-0.666504" y="0.333344" width="41.3335" height="39.6667" filterUnits="userSpaceOnUse" color-interpolation-filters="sRGB">
<feFlood flood-opacity="0" result="BackgroundImageFix"/>
<feColorMatrix in="SourceAlpha" type="matrix" values="0 0 0 0 0 0 0 0 0 0 0 0 0 0 0 0 0 0 127 0" result="hardAlpha"/>
<feOffset dy="4"/>
<feGaussianBlur stdDeviation="2"/>
<feComposite in2="hardAlpha" operator="out"/>
<feColorMatrix type="matrix" values="0 0 0 0 0 0 0 0 0 0 0 0 0 0 0 0 0 0 0.25 0"/>
<feBlend mode="normal" in2="BackgroundImageFix" result="effect1_dropShadow_369_29"/>
<feBlend mode="normal" in="SourceGraphic" in2="effect1_dropShadow_369_29" result="shape"/>
</filter>
</defs>
</svg>
